<mxfile host="app.diagrams.net" modified="2024-07-24T06:01:54.904Z" agent="Mozilla/5.0 (Macintosh; Intel Mac OS X 10_15_7) AppleWebKit/537.36 (KHTML, like Gecko) Chrome/126.0.0.0 Safari/537.36" version="24.7.1" etag="kIZV7aRtRgNOWQzTCrPN" type="github">
  <diagram name="Page-1" id="eWAPUJD03n4A5UJYEVj0">
    <mxGraphModel>
      <root>
        <mxCell id="0" />
        <mxCell id="1" parent="0" />
      </root>
    </mxGraphModel>
  </diagram>
</mxfile>
